<svg width="180" height="89" viewBox="0 0 180 89" fill="none" xmlns="http://www.w3.org/2000/svg">
<path d="M43.0297 40.6999C43.0297 40.6999 43.4547 48.1735 38.2147 48.0953L37.8907 50.7925L31.1937 49.978L32.7797 36.8315L42.7317 36.1372L43.0297 40.6999Z" fill="#FFCEC8"/>
<path d="M30.4257 42.1534C30.3877 42.4884 30.4487 42.8273 30.6017 43.1274C30.7557 43.4274 30.9937 43.6751 31.2877 43.8391C31.5807 44.0032 31.9167 44.0763 32.2507 44.0492C32.5857 44.0221 32.9057 43.896 33.1687 43.6869C33.4327 43.4777 33.6277 43.1949 33.7317 42.8741C33.8347 42.5533 33.8417 42.2089 33.7497 41.8844C33.6587 41.5599 33.4737 41.2698 33.2177 41.0509C32.9627 40.8319 32.6487 40.6939 32.3147 40.6542C31.8667 40.602 31.4157 40.7306 31.0617 41.0117C30.7077 41.2928 30.4787 41.7034 30.4257 42.1534Z" fill="#FFCEC8"/>
<path d="M38.2157 48.0952C38.2157 48.0952 35.8607 47.7881 34.3517 46.1877C34.3517 46.1877 34.8017 48.3146 38.0877 49.1511L38.2157 48.0952Z" fill="#FFB1A8"/>
<path d="M40.4967 36.9975C40.4967 36.9975 38.2767 41.6585 32.5157 40.7247C32.5157 40.7247 31.5407 40.3051 30.8677 41.4381C30.8677 41.4381 25.9997 38.0533 28.3157 31.2006C28.3157 31.2006 37.8167 21.6536 44.1347 30.6169C44.2367 30.7285 44.3327 30.8463 44.4197 30.9698C45.6147 32.6007 45.7057 34.8001 44.7217 36.5683L44.5207 36.9307C44.5207 36.9307 46.6347 40.4653 43.0957 41.3847C43.0967 41.3847 40.8027 39.6375 40.4967 36.9975Z" fill="#FF7867"/>
<path d="M28.3137 31.1987C28.3137 31.1987 24.6897 33.0623 22.3547 30.245C21.9377 29.7414 21.7847 28.5235 22.0877 27.9398C22.2927 27.5363 22.7207 27.1682 23.5787 27.0604C23.5787 27.0604 22.2047 26.5196 22.3707 24.057C22.5507 21.3675 24.4387 19.1195 26.9837 18.2592C29.2637 17.4867 32.3047 17.355 34.9887 20.2039C34.9887 20.2039 37.5757 23.213 35.2147 27.0986C35.2147 27.0976 30.9407 28.8735 28.3137 31.1987Z" fill="#FF7867"/>
<path d="M34.9827 27.2588C36.3657 26.5187 37.8577 26.2822 39.3287 26.4071C40.7997 26.5321 42.2397 27.0251 43.7157 27.5516C42.4927 26.5103 40.9827 25.8673 39.3867 25.708C38.5767 25.6385 37.7617 25.7305 36.9877 25.9789C36.2207 26.2335 35.5007 26.6599 34.9827 27.2588Z" fill="#FF7867"/>
<path d="M35.3337 27.1376C36.1367 26.5762 36.8087 25.8467 37.3027 24.9993C37.7787 24.1476 38.0937 23.1052 37.8537 22.1247C37.5557 23.0048 37.1687 23.8523 36.7007 24.6541C36.2577 25.4504 35.7187 26.2211 35.3337 27.1376Z" fill="#FF7867"/>
<path d="M38.8947 40.6608C38.7887 40.7914 38.3447 40.6131 37.8567 40.6675C37.3677 40.6923 36.9577 40.9393 36.8317 40.8267C36.6917 40.7314 37.0517 40.1104 37.8077 40.0475C38.5637 39.9845 39.0167 40.5454 38.8947 40.6608Z" fill="#FF7867"/>
<path d="M42.0206 41.1987C41.8826 41.2941 41.5026 41.008 41.0186 40.925C40.5436 40.8172 40.0796 40.9441 39.9886 40.802C39.8806 40.6694 40.3916 40.1715 41.1366 40.3155C41.8816 40.4596 42.1696 41.1176 42.0206 41.1987Z" fill="#FF7867"/>
<path d="M41.1207 42.2756C41.0977 42.6151 40.9057 42.8793 40.6927 42.864C40.4787 42.8488 40.3227 42.5626 40.3467 42.2231C40.3697 41.8836 40.5607 41.6194 40.7747 41.6346C40.9887 41.6499 41.1447 41.936 41.1207 42.2756Z" fill="#454545"/>
<path d="M38.2237 42.078C38.2007 42.4176 38.0077 42.6808 37.7947 42.6665C37.5807 42.6522 37.4257 42.3651 37.4487 42.0246C37.4717 41.6841 37.6627 41.4219 37.8777 41.4371C38.0927 41.4524 38.2467 41.7385 38.2237 42.078Z" fill="#454545"/>
<path d="M39.2257 45.1873C39.1957 45.1847 39.1677 45.1715 39.1467 45.1501C39.1247 45.1287 39.1117 45.1004 39.1097 45.0702C39.1067 45.04 39.1147 45.0098 39.1327 44.985C39.1497 44.9602 39.1747 44.9423 39.2047 44.9346C39.5187 44.8573 39.9967 44.6627 40.0257 44.4901C40.0357 44.4272 39.9607 44.3394 39.8207 44.2507C38.8947 43.6642 39.1857 42.0476 39.1977 41.9789C39.2057 41.9468 39.2247 41.9188 39.2527 41.9009C39.2807 41.8829 39.3137 41.8763 39.3457 41.8825C39.3787 41.8886 39.4077 41.907 39.4267 41.9338C39.4457 41.9606 39.4537 41.9939 39.4497 42.0266C39.4497 42.0419 39.1787 43.5392 39.9577 44.0295C40.1987 44.183 40.3077 44.3499 40.2777 44.5283C40.2127 44.9298 39.4227 45.1415 39.2647 45.1806C39.2527 45.1847 39.2397 45.187 39.2257 45.1873Z" fill="#FF7867"/>
<path d="M37.3387 45.6957C37.3097 46.4215 37.8137 47.0386 38.4787 47.0843C39.1437 47.1301 39.7217 46.5855 39.7907 45.8626L37.3387 45.6957Z" fill="white"/>
<path d="M39.7147 46.1983C39.7507 46.09 39.7747 45.9781 39.7857 45.8645L37.3387 45.6957C37.3337 45.8095 37.3427 45.9235 37.3647 46.0352L39.7147 46.1983Z" fill="white"/>
<path d="M60.9767 56.4586L60.6517 58.9498L57.7977 58.2545L58.2037 55.7605L60.9767 56.4586Z" fill="#FFCEC8"/>
<path d="M57.0427 49.955C57.3437 49.832 57.6917 50.0008 57.8597 50.3547L58.7927 51.7853L60.1407 47.0452C60.1977 46.8372 60.3907 46.7409 60.5667 46.843C60.6397 46.8939 60.6957 46.9648 60.7297 47.0471C60.7637 47.1295 60.7727 47.2199 60.7567 47.3074L60.2057 50.7142L61.8967 47.1215C61.9117 47.0807 61.9367 47.0442 61.9687 47.015C62.0007 46.9858 62.0397 46.9647 62.0817 46.9536C62.1237 46.9425 62.1677 46.9416 62.2097 46.9511C62.2517 46.9605 62.2917 46.98 62.3247 47.008C62.3977 47.072 62.4497 47.1576 62.4717 47.2526C62.4937 47.3476 62.4857 47.4472 62.4477 47.5373L62.4367 47.5697C62.4447 47.5611 60.9017 51.1539 60.9017 51.1539L62.6247 48.161C62.6387 48.133 62.6587 48.108 62.6817 48.0876C62.7057 48.0672 62.7337 48.0518 62.7637 48.0423C62.7937 48.0328 62.8247 48.0294 62.8557 48.0322C62.8867 48.0351 62.9177 48.0442 62.9447 48.059C63.0227 48.1069 63.0817 48.1815 63.1097 48.2691C63.1367 48.3567 63.1327 48.4514 63.0957 48.5359L61.7207 51.8339L63.4937 49.7881C63.6017 49.6699 63.6957 49.6384 63.8177 49.7567C63.8427 49.7814 63.8647 49.8104 63.8807 49.8425C63.9107 49.9072 63.9247 49.9782 63.9217 50.0495C63.9197 50.1208 63.8997 50.1905 63.8647 50.2526L60.9807 56.4615L58.2077 55.7633C58.2077 55.7633 58.0687 55.0785 57.9607 53.9207C57.8517 52.7629 57.0427 49.955 57.0427 49.955Z" fill="#FFCEC8"/>
<path d="M38.7827 88.7124L39.6257 50.2497L30.3887 48.9726L30.0557 88.7124H38.7827Z" fill="#FF7867"/>
<path d="M8.83337 87.1627L12.4715 82.4894L8.21008 72.4836L21.2167 61.5393L22.4167 73.4536C22.4167 73.4536 15.9729 77.9162 13.5547 88.7135H30.0557L30.3887 48.9737L24.3417 47.8893C23.6067 47.7601 22.8537 47.7798 22.1257 47.9474C21.3987 48.115 20.7117 48.427 20.1057 48.865C15.9919 51.7777 7.48988 58.9566 2.46728 66.9204C1.84778 67.9018 1.18267 70.1994 1.18267 70.1994C0.757071 72.3902 1.08017 74.6611 2.09957 76.6448L8.83337 87.1627Z" fill="#9999FF"/>
<path d="M21.2166 61.6594C21.1996 61.6593 21.1836 61.6557 21.1686 61.6488C21.1536 61.6419 21.1396 61.6319 21.1286 61.6194C21.1176 61.6078 21.1096 61.5942 21.1046 61.5795C21.0996 61.5648 21.0976 61.5493 21.0986 61.5337C21.0996 61.5182 21.1036 61.503 21.1106 61.489C21.1176 61.4751 21.1276 61.4627 21.1386 61.4525C21.1616 61.4315 23.4196 59.3847 23.1996 55.7195C23.1976 55.6883 23.2086 55.6576 23.2296 55.6342C23.2496 55.6108 23.2786 55.5965 23.3096 55.5946C23.3256 55.5931 23.3406 55.5949 23.3556 55.5998C23.3706 55.6046 23.3846 55.6125 23.3956 55.6229C23.4076 55.6332 23.4166 55.6459 23.4236 55.66C23.4306 55.6742 23.4336 55.6896 23.4346 55.7052C23.6606 59.4906 21.3186 61.6089 21.2946 61.6299C21.2736 61.6489 21.2456 61.6594 21.2166 61.6594Z" fill="#CCCCFF"/>
<path d="M33.9357 88.5809C33.9237 88.5805 33.9117 88.5783 33.9007 88.5742C33.4697 88.3978 33.3657 87.5814 33.5897 86.145C33.5897 86.1279 33.8457 84.6486 34.0377 84.2261C34.0057 84.1765 33.9637 84.1212 33.9197 84.0611C33.7537 83.837 33.5257 83.5299 33.5257 83.2132C34.7957 77.0396 34.6557 71.1445 34.5207 65.443C34.4127 60.865 34.3007 56.1239 34.9247 51.3027C34.9327 51.2836 34.9467 51.2676 34.9647 51.2573C34.9827 51.247 35.0037 51.2428 35.0247 51.2455C35.0447 51.2482 35.0647 51.2576 35.0787 51.2723C35.0937 51.2869 35.1037 51.306 35.1067 51.3266C34.4827 56.1335 34.5957 60.8641 34.7047 65.442C34.8397 71.154 34.9787 77.0596 33.7057 83.2361C33.7057 83.4726 33.9067 83.7406 34.0657 83.9552C34.1237 84.0334 34.1757 84.104 34.2117 84.1641C34.2157 84.1703 34.2187 84.1771 34.2207 84.1841C34.2257 84.1996 34.2257 84.2159 34.2227 84.2315C34.2187 84.2472 34.2117 84.2617 34.2007 84.2738C34.0947 84.5341 33.4107 87.2046 33.7547 88.1384C33.7697 88.196 33.7967 88.2499 33.8337 88.2964C33.8707 88.3429 33.9167 88.381 33.9697 88.4083C33.9917 88.4181 34.0087 88.4359 34.0187 88.458C34.0277 88.4801 34.0287 88.5049 34.0207 88.5275C34.0127 88.5434 34.0007 88.5568 33.9857 88.5663C33.9707 88.5757 33.9537 88.5808 33.9357 88.5809Z" fill="white"/>
<path d="M34.4997 55.1635C34.4997 55.2719 34.4677 55.378 34.4077 55.4681C34.3477 55.5583 34.2627 55.6286 34.1627 55.6701C34.0627 55.7116 33.9527 55.7225 33.8467 55.7013C33.7407 55.6802 33.6437 55.6279 33.5677 55.5512C33.4907 55.4745 33.4387 55.3768 33.4177 55.2705C33.3967 55.1641 33.4077 55.0538 33.4487 54.9536C33.4907 54.8534 33.5607 54.7678 33.6507 54.7075C33.7397 54.6473 33.8457 54.6151 33.9537 54.6151C34.0987 54.6151 34.2377 54.6729 34.3397 54.7757C34.4427 54.8786 34.4997 55.018 34.4997 55.1635Z" fill="white"/>
<path d="M34.2687 66.7992C34.2677 66.9076 34.2357 67.0136 34.1757 67.1036C34.1157 67.1937 34.0297 67.2638 33.9307 67.3052C33.8307 67.3466 33.7207 67.3573 33.6147 67.336C33.5087 67.3148 33.4117 67.2625 33.3357 67.1857C33.2587 67.109 33.2067 67.0113 33.1857 66.9049C33.1647 66.7985 33.1757 66.6883 33.2177 66.5882C33.2587 66.488 33.3287 66.4024 33.4187 66.3422C33.5087 66.282 33.6137 66.2499 33.7217 66.2499C33.7937 66.2499 33.8647 66.2641 33.9317 66.2917C33.9977 66.3193 34.0577 66.3598 34.1087 66.4108C34.1597 66.4618 34.1997 66.5224 34.2267 66.5891C34.2547 66.6557 34.2687 66.7271 34.2687 66.7992Z" fill="white"/>
<path d="M33.9497 79.1082C33.9497 79.2166 33.9177 79.3226 33.8577 79.4128C33.7977 79.503 33.7127 79.5733 33.6127 79.6148C33.5127 79.6563 33.4027 79.6671 33.2967 79.646C33.1907 79.6248 33.0937 79.5726 33.0177 79.4959C32.9407 79.4192 32.8887 79.3215 32.8677 79.2151C32.8467 79.1088 32.8577 78.9985 32.8987 78.8983C32.9407 78.7981 33.0107 78.7125 33.0997 78.6522C33.1897 78.592 33.2957 78.5598 33.4037 78.5598C33.5487 78.5598 33.6877 78.6176 33.7897 78.7204C33.8927 78.8232 33.9497 78.9627 33.9497 79.1082Z" fill="white"/>
<path d="M13.5538 88.7096L14.3205 86.1478L15.9073 87.1397C15.9502 87.1655 16.0013 87.1741 16.0502 87.1637C16.0991 87.1534 16.1424 87.1249 16.1713 87.084C16.2002 87.043 16.2127 86.9926 16.2062 86.9428C16.1997 86.893 16.1747 86.8476 16.1363 86.8155L14.5296 85.5269C14.5055 85.5073 14.4884 85.4802 14.4811 85.4499C14.4737 85.4196 14.4764 85.3877 14.4887 85.3591C14.4966 85.3413 14.5081 85.3253 14.5224 85.3121C14.5367 85.299 14.5536 85.2889 14.572 85.2827C14.5904 85.2764 14.6099 85.274 14.6292 85.2757C14.6486 85.2773 14.6674 85.283 14.6845 85.2923L16.409 86.2461C16.4514 86.27 16.5011 86.2774 16.5487 86.2668C16.5962 86.2563 16.6381 86.2285 16.6665 86.1888C16.6949 86.1491 16.7076 86.1003 16.7024 86.0517C16.6971 86.0032 16.6742 85.9583 16.638 85.9256L14.9277 84.3472C14.8993 84.3208 14.8816 84.2848 14.8779 84.2461C14.8742 84.2074 14.8848 84.1687 14.9077 84.1374C14.9306 84.1061 14.9641 84.0843 15.002 84.0762C15.0398 84.0681 15.0794 84.0742 15.113 84.0935L16.9601 85.1741C17.0154 85.2055 17.0803 85.2152 17.1423 85.2013C17.2042 85.1875 17.2589 85.151 17.2957 85.0991C17.3324 85.0471 17.3487 84.9833 17.3413 84.92C17.3339 84.8566 17.3034 84.7983 17.2556 84.7563L15.6289 83.3686C15.6245 83.3644 15.6216 83.3589 15.6208 83.3529C15.6199 83.3468 15.6211 83.3407 15.6242 83.3355C15.6274 83.3302 15.6321 83.3262 15.6378 83.3241C15.6435 83.322 15.6498 83.3219 15.6555 83.3238L17.4171 83.9647C17.4706 83.9854 17.5301 83.9845 17.5829 83.9622C17.6358 83.9399 17.6781 83.898 17.7009 83.8452C17.7237 83.7924 17.7253 83.7327 17.7054 83.6788C17.6854 83.6248 17.6455 83.5806 17.5938 83.5555L15.1738 82.3157C15.0973 82.2748 15.0133 82.2498 14.9269 82.2424C14.8405 82.235 14.7535 82.2453 14.6712 82.2725C14.5889 82.2998 14.5129 82.3436 14.4479 82.4011C14.3829 82.4587 14.3302 82.5289 14.293 82.6075L13.129 85.0777L11.8663 83.2656L9.89087 85.8112L13.0578 88.7096H13.5538Z" fill="#FFCEC8"/>
<path d="M49.3357 88.7095C47.9647 80.6179 44.7747 75.5955 44.7747 75.5955L46.2757 70.1954L51.3867 76.0333C53.0667 77.9551 55.5836 78.5588 57.7996 77.5726C59.9306 76.6246 61.4037 74.3747 61.6007 71.772L62.0996 57.1606L57.0696 55.3943L54.4537 67.3695L46.6696 54.5655C46.0696 53.5788 45.1897 52.7949 44.1427 52.3146L39.6256 50.2459L38.7827 88.7095H49.3357Z" fill="#9999FF"/>
<path d="M46.2747 70.3166C46.2567 70.3166 46.2397 70.3126 46.2237 70.305C46.2077 70.2973 46.1937 70.2861 46.1827 70.2723C46.1717 70.2585 46.1637 70.2423 46.1597 70.2251C46.1557 70.2078 46.1557 70.1899 46.1597 70.1726C46.1757 70.102 47.7057 62.9823 45.7097 54.368C45.7027 54.3374 45.7087 54.3053 45.7247 54.2786C45.7417 54.252 45.7677 54.233 45.7987 54.2259C45.8287 54.2188 45.8607 54.2242 45.8877 54.2408C45.9137 54.2575 45.9327 54.284 45.9397 54.3146C47.9477 62.9832 46.4057 70.1526 46.3897 70.2241C46.3837 70.2503 46.3687 70.2738 46.3477 70.2906C46.3277 70.3074 46.3017 70.3166 46.2747 70.3166Z" fill="#CCCCFF"/>
<path d="M54.0017 70.7448H53.9857C53.9557 70.7395 53.9287 70.7225 53.9117 70.6975C53.8937 70.6726 53.8857 70.6416 53.8907 70.6113L54.3407 67.3542C54.3417 67.3386 54.3467 67.3236 54.3547 67.3099C54.3627 67.2963 54.3727 67.2844 54.3857 67.275C54.3977 67.2655 54.4117 67.2587 54.4267 67.2549C54.4427 67.2512 54.4577 67.2506 54.4737 67.2531C54.5047 67.2576 54.5327 67.2741 54.5507 67.2991C54.5697 67.3241 54.5787 67.3556 54.5737 67.3866L54.1237 70.6437C54.1197 70.6728 54.1047 70.6993 54.0827 70.718C54.0597 70.7367 54.0317 70.7463 54.0017 70.7448Z" fill="#CCCCFF"/>
<path d="M61.9907 60.5865C61.9787 60.5864 61.9677 60.5845 61.9557 60.5808L57.0067 59.0548C56.9917 59.0503 56.9777 59.0429 56.9657 59.033C56.9537 59.0232 56.9437 59.011 56.9367 58.9972C56.9297 58.9835 56.9247 58.9684 56.9237 58.9529C56.9227 58.9374 56.9237 58.9218 56.9287 58.9069C56.9377 58.8771 56.9587 58.8522 56.9867 58.8375C57.0137 58.8229 57.0457 58.8197 57.0757 58.8287L62.0257 60.3547C62.0397 60.3592 62.0537 60.3666 62.0657 60.3765C62.0777 60.3863 62.0877 60.3985 62.0957 60.4122C62.1027 60.426 62.1077 60.441 62.1087 60.4565C62.1107 60.472 62.1087 60.4877 62.1037 60.5026C62.0967 60.5268 62.0817 60.5479 62.0617 60.563C62.0407 60.5781 62.0167 60.5863 61.9907 60.5865Z" fill="#CCCCFF"/>
<path d="M60.9196 59.2931C60.7876 59.2931 60.6586 59.2539 60.5496 59.1806C60.4406 59.1072 60.3546 59.003 60.3046 58.881C60.2546 58.759 60.2416 58.6247 60.2666 58.4952C60.2926 58.3657 60.3556 58.2468 60.4486 58.1534C60.5416 58.06 60.6606 57.9965 60.7896 57.9707C60.9186 57.9449 61.0526 57.9581 61.1736 58.0087C61.2956 58.0592 61.3996 58.1448 61.4726 58.2546C61.5456 58.3644 61.5846 58.4934 61.5846 58.6255C61.5846 58.8025 61.5146 58.9724 61.3896 59.0976C61.2646 59.2228 61.0956 59.2931 60.9196 59.2931ZM60.9196 58.1963C60.8346 58.1965 60.7516 58.2219 60.6816 58.2692C60.6106 58.3166 60.5566 58.3839 60.5236 58.4625C60.4916 58.5411 60.4836 58.6276 60.4996 58.7109C60.5166 58.7943 60.5576 58.8709 60.6176 58.9309C60.6776 58.991 60.7536 59.0319 60.8366 59.0484C60.9196 59.0649 61.0066 59.0563 61.0846 59.0237C61.1626 58.9912 61.2296 58.936 61.2766 58.8653C61.3236 58.7946 61.3486 58.7115 61.3486 58.6264C61.3486 58.5123 61.3026 58.4029 61.2226 58.3222C61.1416 58.2416 61.0326 58.1963 60.9196 58.1963Z" fill="#CCCCFF"/>
<path d="M8.90747 85.4058C8.77597 85.4058 8.64737 85.3666 8.53797 85.2933C8.42857 85.2199 8.34337 85.1156 8.29297 84.9936C8.24267 84.8717 8.22947 84.7374 8.25517 84.6079C8.28077 84.4784 8.34417 84.3594 8.43717 84.2661C8.53017 84.1727 8.64867 84.1091 8.77767 84.0834C8.90677 84.0576 9.04047 84.0708 9.16197 84.1214C9.28357 84.1719 9.38737 84.2575 9.46047 84.3673C9.53357 84.477 9.57257 84.6061 9.57257 84.7382C9.57257 84.9152 9.50247 85.085 9.37777 85.2102C9.25307 85.3354 9.08387 85.4058 8.90747 85.4058ZM8.90747 84.309C8.82267 84.309 8.73987 84.3342 8.66937 84.3815C8.59897 84.4287 8.54397 84.4959 8.51157 84.5745C8.47917 84.6531 8.47067 84.7396 8.48717 84.823C8.50377 84.9065 8.54457 84.9831 8.60447 85.0433C8.66437 85.1034 8.74077 85.1444 8.82387 85.161C8.90697 85.1776 8.99317 85.1691 9.07147 85.1365C9.14977 85.104 9.21667 85.0488 9.26377 84.9781C9.31087 84.9073 9.33597 84.8242 9.33597 84.7391C9.33597 84.625 9.29087 84.5156 9.21047 84.435C9.13007 84.3543 9.02107 84.309 8.90747 84.309Z" fill="#CCCCFF"/>
<path d="M7.66276 83.9609C7.63446 83.961 7.60716 83.9509 7.58576 83.9323C7.56216 83.9118 7.54756 83.8828 7.54506 83.8516C7.54256 83.8204 7.55246 83.7894 7.57246 83.7654L11.1556 79.5794C11.176 79.5555 11.2051 79.5407 11.2363 79.5383C11.2676 79.5359 11.2986 79.546 11.3224 79.5665C11.3462 79.587 11.3609 79.6162 11.3633 79.6475C11.3657 79.6789 11.3556 79.71 11.3352 79.7339L7.75206 83.9199C7.74096 83.9327 7.72716 83.943 7.71176 83.95C7.69636 83.9571 7.67966 83.9608 7.66276 83.9609Z" fill="#CCCCFF"/>
<path d="M32.7377 52.9861C32.7197 52.9863 32.7017 52.9809 32.6877 52.9709L30.0197 51.2055C30.0067 51.1898 29.9987 51.17 29.9967 51.1492C29.9957 51.1284 30.0007 51.1077 30.0127 51.0903C30.0237 51.0728 30.0407 51.0597 30.0597 51.0527C30.0797 51.0458 30.1007 51.0455 30.1207 51.052L32.7337 52.782L34.9047 51.1445C34.9147 51.1371 34.9247 51.1316 34.9367 51.1285C34.9487 51.1254 34.9607 51.1247 34.9727 51.1264C34.9847 51.1281 34.9957 51.1321 35.0057 51.1384C35.0167 51.1446 35.0247 51.1528 35.0327 51.1626C35.0457 51.1823 35.0517 51.2064 35.0477 51.23C35.0447 51.2537 35.0327 51.2752 35.0137 51.2904L32.7897 52.968C32.7747 52.9791 32.7567 52.9854 32.7377 52.9861Z" fill="white"/>
<path d="M36.8107 53.2359C36.7977 53.2357 36.7857 53.2329 36.7737 53.2277C36.7617 53.2224 36.7517 53.2148 36.7427 53.2054L35.0317 51.278C35.0167 51.2594 35.0097 51.2359 35.0107 51.2121C35.0127 51.1883 35.0227 51.1658 35.0397 51.1492C35.0577 51.1337 35.0817 51.1258 35.1057 51.1271C35.1297 51.1283 35.1526 51.1386 35.1686 51.1559L36.8377 53.0394L39.9056 51.9179C39.9256 51.9166 39.9467 51.922 39.9637 51.9332C39.9807 51.9444 39.9937 51.9609 40.0007 51.9802C40.0077 51.9995 40.0086 52.0206 40.0026 52.0403C39.9966 52.06 39.9847 52.0773 39.9687 52.0895L36.8427 53.234C36.8317 53.2363 36.8217 53.237 36.8107 53.2359Z" fill="white"/>
<path d="M31.2596 49.0834L34.6356 50.6828L37.9726 50.0238L34.7956 48.5083L31.2596 49.0834Z" fill="#FFCEC8"/>
<path d="M39.6257 50.2498L38.1237 48.8563L37.9727 50.0237L38.9927 50.4548L39.6257 50.2498Z" fill="#FF7867"/>
<path d="M31.4437 47.8492L31.2997 49.1768L30.3887 48.9727L31.4437 47.8492Z" fill="#FF7867"/>
<path d="M72.5247 40.3184C72.5247 40.3184 69.1187 49.5946 74.8657 51.7443L74.2887 58.4854L82.0347 58.9861L83.8137 44.7629C83.8137 44.7629 79.3707 30.5893 72.5247 40.3184Z" fill="#FFD3CF"/>
<path d="M74.2887 58.4854L66.7906 86.927C66.7906 86.927 69.8416 82.9089 77.5276 85.8426C85.2136 88.7763 87.6526 82.7601 87.6526 82.7601L83.7576 74.1153L82.0296 58.9861L78.1646 58.018L74.2887 58.4854Z" fill="#545ED3"/>
<path d="M78.2467 57.936L79.4067 61.5011L82.0907 60.6494L82.0347 58.9861L82.3467 55.7596L78.2467 57.936Z" fill="#545ED3"/>
<path d="M74.5767 55.1434L78.2467 57.936L76.2367 61.5612L73.6187 60.5245L74.2887 58.4854L74.5767 55.1434Z" fill="#545ED3"/>
<path d="M93.0297 88.7095C91.2147 86.6113 88.5367 83.6003 87.6537 82.7572C87.6537 82.7572 84.2337 88.2298 75.7427 85.1215C74.9707 84.8251 74.1637 84.629 73.3417 84.5378C71.5727 84.37 68.8107 84.5779 66.7857 86.9222C66.7857 86.9222 66.6847 87.5402 66.5867 88.7076L93.0297 88.7095Z" fill="#FF7867"/>
<path d="M56.7587 14.4404C56.7587 14.4404 60.6157 10.5997 63.7737 12.9678L59.6937 16.6951C59.6937 16.6951 57.4367 17.7833 56.7587 14.4404Z" fill="#FF7867"/>
<path d="M115.522 40.699C115.522 40.699 115.933 39.7453 114.447 37.6556C113.272 35.8035 112.018 35.2064 109.987 35.5431L110.865 40.6304C110.865 40.6304 112.452 43.3113 115.522 40.699Z" fill="#FF7867"/>
<path d="M58.8047 13.6698L59.2527 16.1429L62.0687 15.3064L61.5407 12.8343L58.8047 13.6698Z" fill="#FFCEC8"/>
<path d="M62.4137 6.97926C62.1067 6.87053 61.7677 7.05652 61.6177 7.41894L60.7557 8.89724L59.1757 4.22961C59.1087 4.02456 58.9107 3.93777 58.7407 4.0484C58.6707 4.10392 58.6187 4.17837 58.5897 4.26291C58.5607 4.34745 58.5567 4.43852 58.5777 4.52527L59.2967 7.89962L57.4307 4.39557C57.4137 4.35525 57.3877 4.31958 57.3537 4.29158C57.3207 4.26358 57.2807 4.24407 57.2387 4.23471C57.1957 4.22536 57.1517 4.22642 57.1097 4.23782C57.0677 4.24922 57.0287 4.27061 56.9967 4.30019C56.9277 4.36822 56.8807 4.45642 56.8637 4.55239C56.8467 4.64836 56.8597 4.74728 56.9017 4.83524L56.9157 4.86672C56.9067 4.85813 58.6257 8.36982 58.6257 8.36982L56.7557 5.46376C56.7407 5.43642 56.7197 5.41245 56.6947 5.39327C56.6697 5.37409 56.6417 5.36009 56.6117 5.35209C56.5807 5.34409 56.5497 5.34226 56.5187 5.34669C56.4877 5.35113 56.4577 5.36175 56.4307 5.37792C56.3567 5.42937 56.3037 5.50556 56.2797 5.5929C56.2567 5.68024 56.2647 5.77306 56.3037 5.85479L57.8407 9.08036L55.9677 7.12518C55.8537 7.01264 55.7587 6.98594 55.6427 7.10992C55.6177 7.13552 55.5977 7.16561 55.5837 7.19862C55.5577 7.26477 55.5467 7.33642 55.5527 7.4076C55.5587 7.47877 55.5827 7.5474 55.6207 7.60778L58.8067 13.665L61.5427 12.8295C61.5427 12.8295 61.6467 12.14 61.6977 10.9773C61.7477 9.81474 62.4137 6.97926 62.4137 6.97926Z" fill="#FFCEC8"/>
<path d="M113.822 39.2045L112.169 41.0929L110.185 38.9193L111.906 37.0738L113.822 39.2045Z" fill="#FFCEC8"/>
<path d="M114.163 31.604C114.481 31.6698 114.677 32.0046 114.62 32.3928L114.6 34.1095L118.35 30.9259C118.513 30.7848 118.73 30.8134 118.816 30.9965C118.847 31.0795 118.853 31.1696 118.835 31.2563C118.817 31.343 118.774 31.4226 118.712 31.4858L116.363 34.0065L119.761 31.9617C119.797 31.9363 119.837 31.9198 119.88 31.9135C119.923 31.9072 119.967 31.9113 120.008 31.9255C120.049 31.9397 120.086 31.9636 120.116 31.9951C120.146 32.0266 120.168 32.0649 120.18 32.1067C120.205 32.2008 120.201 32.3005 120.167 32.3918C120.132 32.4831 120.071 32.5615 119.99 32.616L119.962 32.636C119.973 32.636 116.698 34.7543 116.698 34.7543L119.793 33.2283C119.82 33.2128 119.85 33.203 119.881 33.1994C119.912 33.1958 119.944 33.1986 119.974 33.2075C120.004 33.2164 120.032 33.2312 120.056 33.2512C120.08 33.2711 120.1 33.2958 120.115 33.3236C120.152 33.4065 120.159 33.5002 120.134 33.5876C120.108 33.6751 120.053 33.7506 119.977 33.8005L117.003 35.7767L119.612 35.069C119.767 35.0308 119.863 35.0575 119.897 35.2235C119.905 35.2585 119.907 35.2947 119.902 35.3303C119.891 35.401 119.863 35.468 119.821 35.5257C119.779 35.5835 119.724 35.6303 119.661 35.6622L113.821 39.2054L111.905 37.0747C111.905 37.0747 112.169 36.429 112.722 35.4076C113.275 34.3861 114.163 31.604 114.163 31.604Z" fill="#FFCEC8"/>
<path d="M72.5247 40.3184C72.5247 40.3184 71.3057 38.4414 72.4977 36.1629C72.4977 36.1629 74.3516 32.1028 80.1186 33.6832C85.8846 35.2635 84.5086 40.369 84.5086 40.369C84.5086 40.369 86.3026 38.0256 89.7586 39.606C93.2146 41.1863 92.5427 45.7195 92.5427 45.7195C92.5427 45.7195 91.6647 48.7829 97.1377 48.9746C97.1377 48.9746 100.143 48.7362 101.003 51.0872C101.003 51.0872 103.205 54.2584 100.001 57.7548C97.7877 60.1707 100.21 62.0114 101.92 62.9184C103.138 63.5641 103.992 64.7792 104.074 66.1611C104.156 67.5431 103.632 69.0138 101.224 69.4878C101.224 69.4878 105.422 75.0768 100.987 80.2651C97.7877 84.0038 93.9417 84.3481 93.9417 84.3481L83.8986 75.2446L82.3507 55.7672L83.4417 46.9355C83.4417 46.9355 80.5377 45.894 80.0377 42.41C79.8887 41.3761 79.4057 40.3985 78.5447 39.8129C78.0277 39.461 77.1487 39.2216 76.0857 39.2531C74.8287 39.3045 73.6047 39.6707 72.5247 40.3184Z" fill="#FF9D5A"/>
<path d="M64.6346 63.6471C65.2266 66.3033 66.5107 68.7544 66.5107 68.7544C66.5107 68.7544 63.8306 80.3329 61.1536 88.7125H68.0636C70.2886 79.6911 74.0016 63.6824 74.5766 55.1407L74.8616 51.7415C74.8616 51.7415 71.8936 50.8584 71.5566 46.7649C71.4986 45.9261 71.5586 45.0833 71.7346 44.2613L72.5206 40.3156L63.7696 12.9651C63.7696 12.9651 62.0306 12.3375 59.3866 14.7171C58.6966 15.338 57.6116 15.3466 56.9666 14.6799C56.8916 14.6028 56.8216 14.522 56.7546 14.4377L67.4036 59.3868C67.4036 59.3868 64.0416 60.99 64.6346 63.6471Z" fill="#9999FF"/>
<path d="M90.6417 67.2855L115.523 40.6989C113.161 39.3531 112.816 38.0513 112.816 38.0513C111.342 33.9502 109.301 35.8882 109.301 35.8882L85.1087 58.4366L85.0597 58.4452L90.6287 67.315L90.6417 67.2855Z" fill="#9999FF"/>
<path d="M90.9397 88.7095H101.341C94.5807 84.0638 86.3397 76.3223 86.3397 76.3223C85.8777 73.7605 90.5577 67.3161 90.8757 66.8802L88.4587 56.6808L82.3477 55.7557C80.7877 60.3709 81.0287 68.2288 82.7817 76.8841C83.5547 80.7105 87.8697 85.7682 90.9397 88.7095Z" fill="#9999FF"/>
<path d="M76.1377 84.9813C76.1137 84.9796 76.0917 84.9688 76.0747 84.9511C76.0587 84.9334 76.0497 84.9101 76.0497 84.8859C76.0497 84.7533 76.1777 82.2803 76.2977 79.8883C76.4087 77.6632 76.5237 75.3609 76.5287 75.2359C76.5367 74.9889 77.2557 73.7509 77.4997 73.337L76.0747 72.6398C76.0617 72.6338 76.0497 72.6246 76.0417 72.6131C76.0327 72.6016 76.0277 72.5882 76.0247 72.574C76.0227 72.56 76.0227 72.5454 76.0267 72.5317C76.0307 72.5179 76.0377 72.5053 76.0477 72.4949L77.2047 71.255L76.0587 70.7467C76.0407 70.7383 76.0257 70.7247 76.0157 70.7076C76.0067 70.6905 76.0027 70.6708 76.0037 70.6513L78.1597 57.9217C78.1637 57.901 78.1747 57.8823 78.1897 57.8683C78.2057 57.8543 78.2257 57.8459 78.2467 57.8444C78.2677 57.8436 78.2887 57.8499 78.3057 57.8623C78.3227 57.8748 78.3357 57.8926 78.3417 57.9131L79.1017 60.7743L82.0187 59.4438C82.0297 59.4342 82.0427 59.4273 82.0577 59.4238C82.0717 59.4202 82.0867 59.42 82.1007 59.4232C82.1157 59.4264 82.1287 59.433 82.1407 59.4423C82.1517 59.4517 82.1607 59.4636 82.1667 59.4771C82.1727 59.4906 82.1757 59.5053 82.1757 59.5201C82.1747 59.5349 82.1707 59.5493 82.1637 59.5623C82.1567 59.5753 82.1467 59.5864 82.1347 59.5948C82.1217 59.6032 82.1087 59.6087 82.0937 59.6107L79.0787 60.986C79.0667 60.9917 79.0537 60.9947 79.0407 60.9947C79.0277 60.9947 79.0147 60.9917 79.0027 60.986C78.9907 60.9802 78.9807 60.9719 78.9717 60.9617C78.9637 60.9515 78.9567 60.9397 78.9537 60.9269L78.2697 58.368L76.1957 70.6141L77.3947 71.1453C77.4077 71.1518 77.4187 71.161 77.4277 71.1724C77.4367 71.1837 77.4427 71.1969 77.4457 71.2109C77.4487 71.225 77.4477 71.2395 77.4447 71.2534C77.4407 71.2673 77.4347 71.2802 77.4257 71.2912L76.2657 72.5311L77.6687 73.2178C77.6797 73.2235 77.6897 73.2315 77.6977 73.2411C77.7067 73.2508 77.7127 73.262 77.7167 73.2741C77.7197 73.2863 77.7207 73.2991 77.7187 73.3118C77.7177 73.3244 77.7127 73.3365 77.7067 73.3475C77.2977 74.038 76.7167 75.0833 76.7107 75.2445C76.7107 75.3704 76.5957 77.5707 76.4797 79.8997C76.3607 82.2908 76.2367 84.7638 76.2317 84.8945C76.2297 84.9181 76.2187 84.9401 76.2017 84.9561C76.1847 84.9722 76.1617 84.9812 76.1377 84.9813Z" fill="white"/>
<path d="M82.0707 48.2402C81.9757 49.3399 81.8397 50.2259 82.9357 50.3203C84.0307 50.4148 85.9427 49.6823 86.0367 48.5826C86.0727 48.0598 85.9027 47.5436 85.5627 47.1455C85.2237 46.7473 84.7417 46.499 84.2217 46.4541C83.7017 46.4092 83.1847 46.5713 82.7817 46.9054C82.3797 47.2395 82.1247 47.7189 82.0707 48.2402Z" fill="#FFD3CF"/>
<path d="M76.4397 60.6618C76.4197 60.6614 76.3997 60.6548 76.3837 60.6428L73.7007 58.5874C73.6867 58.5821 73.6747 58.5736 73.6647 58.5626C73.6547 58.5516 73.6477 58.5385 73.6437 58.5242C73.6397 58.5099 73.6387 58.4949 73.6417 58.4803C73.6447 58.4658 73.6507 58.4521 73.6597 58.4403C73.6687 58.4285 73.6807 58.4191 73.6937 58.4126C73.7067 58.4062 73.7217 58.4029 73.7367 58.4031C73.7517 58.4033 73.7657 58.407 73.7787 58.4138C73.7917 58.4207 73.8037 58.4305 73.8117 58.4425L76.4187 60.4387L78.0947 57.9665C78.1107 57.9537 78.1297 57.9464 78.1507 57.9456C78.1707 57.9448 78.1907 57.9506 78.2077 57.9622C78.2247 57.9737 78.2367 57.9904 78.2437 58.0097C78.2507 58.0291 78.2507 58.05 78.2447 58.0695L76.5157 60.6218C76.5007 60.6423 76.4787 60.6564 76.4547 60.6609L76.4397 60.6618Z" fill="white"/>
<path d="M74.8657 51.7443C74.8657 51.7443 78.0367 52.2765 80.4877 50.6484C80.4877 50.6484 79.9037 52.8621 74.7667 53.0328L74.8657 51.7443Z" fill="#FFB2A9"/>
<path d="M77.6597 42.8992C77.7247 43.0537 78.1977 43.0041 78.6487 43.1853C79.1097 43.3427 79.4347 43.6908 79.5857 43.6183C79.7447 43.562 79.5697 42.8735 78.8637 42.6074C78.1577 42.3413 77.5747 42.7523 77.6597 42.8992Z" fill="#FF9D5A"/>
<path d="M73.4687 42.9202C73.5737 43.0518 74.0167 42.8763 74.4997 42.9326C74.9867 42.9593 75.3927 43.2073 75.5187 43.0967C75.6437 42.986 75.3037 42.3832 74.5527 42.3174C73.8007 42.2516 73.3487 42.8019 73.4687 42.9202Z" fill="#FF9D5A"/>
<path d="M73.8847 45.1749C73.8137 45.5049 73.9257 45.8091 74.1347 45.8539C74.3437 45.8988 74.5697 45.6632 74.6397 45.3361C74.7097 45.0089 74.5977 44.7008 74.3887 44.656C74.1797 44.6112 73.9547 44.8439 73.8847 45.1749Z" fill="#454545"/>
<path d="M77.7927 45.9322C77.7217 46.2631 77.8337 46.5674 78.0417 46.6122C78.2507 46.657 78.4767 46.4214 78.5467 46.0934C78.6167 45.7653 78.5047 45.4582 78.2957 45.4143C78.0867 45.3704 77.8617 45.6003 77.7927 45.9322Z" fill="#454545"/>
<path d="M75.5257 48.4044C75.5117 48.4042 75.4977 48.4013 75.4847 48.3958C75.4087 48.3662 74.7427 48.0953 74.7247 47.7081C74.7157 47.5174 74.8497 47.3562 75.1247 47.2169C76.0347 46.7572 76.0467 44.9336 76.0467 44.9155C76.0467 44.8846 76.0587 44.8549 76.0807 44.8329C76.1027 44.8109 76.1317 44.7984 76.1627 44.7982C76.1937 44.7984 76.2227 44.8109 76.2447 44.8329C76.2667 44.8549 76.2787 44.8846 76.2787 44.9155C76.2787 44.9966 76.2657 46.9012 75.2337 47.4248C75.1287 47.4773 74.9547 47.5832 74.9607 47.6967C74.9687 47.8674 75.3237 48.0782 75.5737 48.1793C75.5987 48.189 75.6207 48.2074 75.6337 48.2313C75.6467 48.2551 75.6517 48.2829 75.6467 48.3098C75.6407 48.3367 75.6267 48.3608 75.6057 48.3781C75.5847 48.3954 75.5577 48.4047 75.5307 48.4044H75.5257Z" fill="#FF7867"/>
<path d="M78.5877 48.0656C78.2597 48.0648 77.9357 47.9866 77.6427 47.8372C77.3507 47.6879 77.0967 47.4716 76.9027 47.2058C76.7087 46.94 76.5787 46.6322 76.5247 46.3071C76.4717 45.982 76.4937 45.6487 76.5917 45.3341C76.7077 44.9622 76.9237 44.6298 77.2167 44.3739C77.5087 44.118 77.8667 43.9485 78.2497 43.8845C78.6317 43.8204 79.0247 43.8642 79.3847 44.011C79.7437 44.1579 80.0557 44.4019 80.2857 44.7161C80.5147 45.0302 80.6527 45.4021 80.6847 45.7904C80.7157 46.1786 80.6397 46.568 80.4637 46.9152C80.2877 47.2624 80.0187 47.5538 79.6877 47.7569C79.3567 47.96 78.9757 48.0669 78.5877 48.0656ZM78.5877 44.038C78.1797 44.0397 77.7837 44.1714 77.4557 44.4142C77.1277 44.657 76.8847 44.9982 76.7627 45.3885C76.6117 45.8749 76.6597 46.4017 76.8957 46.853C77.1307 47.3042 77.5357 47.643 78.0207 47.7948C78.5047 47.9466 79.0297 47.8989 79.4797 47.6622C79.9287 47.4256 80.2667 47.0194 80.4177 46.533C80.4927 46.2919 80.5197 46.0385 80.4967 45.787C80.4737 45.5356 80.4017 45.2911 80.2847 45.0676C80.1677 44.8441 80.0077 44.646 79.8147 44.4845C79.6207 44.3231 79.3977 44.2015 79.1577 44.1267C78.9707 44.0677 78.7767 44.0378 78.5807 44.038H78.5877Z" fill="white"/>
<path d="M73.7067 47.3828C73.4937 47.3827 73.2827 47.3506 73.0797 47.2875C72.6157 47.1427 72.2167 46.841 71.9497 46.4339C71.6837 46.0268 71.5657 45.5395 71.6167 45.055C71.6677 44.5704 71.8847 44.1187 72.2307 43.7767C72.5767 43.4347 73.0297 43.2237 73.5127 43.1795C73.9967 43.1354 74.4797 43.2609 74.8817 43.5346C75.2827 43.8084 75.5777 44.2134 75.7147 44.6807C75.8527 45.1481 75.8237 45.6488 75.6347 46.0975C75.4457 46.5462 75.1077 46.9152 74.6777 47.1415C74.3787 47.3001 74.0447 47.383 73.7067 47.3828ZM73.7067 43.3552C73.2487 43.3556 72.8067 43.5205 72.4597 43.8199C72.1127 44.1193 71.8847 44.5335 71.8157 44.9875C71.7467 45.4415 71.8417 45.9052 72.0847 46.2948C72.3267 46.6843 72.6997 46.9739 73.1367 47.111C73.3997 47.1927 73.6767 47.2165 73.9497 47.1807C74.2227 47.1449 74.4847 47.0504 74.7187 46.9037C74.9517 46.757 75.1507 46.5615 75.3017 46.3305C75.4527 46.0995 75.5527 45.8385 75.5937 45.5653C75.6357 45.2922 75.6177 45.0132 75.5417 44.7476C75.4657 44.4819 75.3337 44.2357 75.1547 44.0259C74.9757 43.8161 74.7537 43.6476 74.5037 43.5318C74.2537 43.4161 73.9817 43.3558 73.7067 43.3552Z" fill="white"/>
<path d="M76.5786 46.0094H76.5636L75.6356 45.8492C75.6116 45.8441 75.5916 45.8304 75.5776 45.8108C75.5636 45.7912 75.5576 45.7671 75.5616 45.7433C75.5666 45.7199 75.5796 45.6992 75.5996 45.6854C75.6186 45.6716 75.6426 45.6657 75.6666 45.6689L76.5936 45.8291C76.6126 45.8366 76.6296 45.8501 76.6396 45.8675C76.6506 45.8849 76.6556 45.9054 76.6536 45.9259C76.6526 45.9464 76.6436 45.9657 76.6306 45.9811C76.6166 45.9965 76.5986 46.0071 76.5786 46.0113V46.0094Z" fill="white"/>
<path d="M77.1787 49.2246C77.1307 49.6101 76.9357 49.9622 76.6357 50.2065C76.3347 50.4508 75.9507 50.5685 75.5647 50.5346C75.1797 50.5007 74.8217 50.318 74.5677 50.025C74.3137 49.7319 74.1827 49.3513 74.2027 48.9632L77.1787 49.2246Z" fill="white"/>
<path d="M76.5177 39.1863C76.5177 39.1863 76.8167 40.9917 72.2907 41.5993C72.2907 41.5993 71.0187 38.6894 72.4307 36.3403L76.5177 39.1863Z" fill="#FF9D5A"/>
<path d="M114.639 53.8148C114.433 53.7778 114.221 53.815 114.041 53.9197C113.86 54.0244 113.722 54.19 113.651 54.3871L112.729 56.0819L109.943 51.2769C109.914 51.2263 109.875 51.1823 109.829 51.1475C109.782 51.1128 109.729 51.0882 109.672 51.0752C109.616 51.0622 109.557 51.0611 109.5 51.072C109.443 51.0829 109.389 51.1056 109.341 51.1386C109.26 51.1968 109.202 51.2807 109.176 51.3767C109.149 51.4726 109.156 51.5747 109.195 51.666L110.649 55.1949L107.657 51.6746C107.622 51.6326 107.578 51.598 107.53 51.573C107.481 51.548 107.427 51.533 107.373 51.5289C107.318 51.5249 107.263 51.5318 107.211 51.5492C107.159 51.5667 107.111 51.5944 107.07 51.6308C106.989 51.7036 106.939 51.8048 106.929 51.9137C106.92 52.0226 106.953 52.1308 107.021 52.2164L107.043 52.2497C107.031 52.2412 109.828 55.7881 109.828 55.7881L106.92 52.9097C106.862 52.8528 106.787 52.8168 106.707 52.8075C106.627 52.7981 106.546 52.816 106.477 52.8582C106.434 52.8851 106.397 52.9207 106.369 52.9628C106.34 53.0049 106.321 53.0526 106.312 53.1026C106.303 53.1527 106.304 53.2041 106.317 53.2535C106.329 53.3029 106.351 53.3492 106.382 53.3895L108.898 56.6532L106.124 54.7943C105.956 54.6875 105.826 54.6713 105.691 54.8191C105.663 54.8486 105.641 54.8833 105.626 54.9212C105.6 54.9966 105.597 55.0778 105.617 55.1549C105.637 55.232 105.678 55.3019 105.736 55.3561L110.855 61.4467L114.354 60.2068C114.37 59.5384 114.347 58.8695 114.284 58.2039C114.178 56.9498 114.639 53.8148 114.639 53.8148Z" fill="#FFD3CF"/>
<path d="M135.264 23.0919C135.264 23.0919 132.825 34.8649 139.825 35.8483L139.835 39.5135L144.188 42.5483L150.114 38.7247L151.478 39.1883L149.513 24.6808L135.264 23.0919Z" fill="#FFCEC8"/>
<path d="M135.264 23.0918C135.264 23.0918 137.099 26.3613 141.182 24.2201C141.182 24.2201 142.632 23.6431 143.226 25.3484C143.435 25.9493 143.724 26.6493 144.295 26.9936C144.395 27.0584 144.508 27.1005 144.626 27.1169C144.743 27.1334 144.863 27.1239 144.977 27.089C145.135 27.0318 145.262 26.9125 145.403 26.8191C146.075 26.3699 147.06 26.5845 147.582 27.2006C148.659 28.4795 147.811 30.4605 146.149 30.5463C145.856 30.5618 145.561 30.5529 145.269 30.5196C145.269 30.5196 145.516 33.6298 150.652 33.0813L149.791 23.4543C149.791 23.4543 149.92 21.0251 147.796 22.0694L147.93 20.4481C147.93 20.4481 145.822 22.552 141.93 20.7542C138.039 18.9564 135.97 17.6174 134.294 19.7242C132.618 21.831 133.894 24.0418 135.023 24.4366L135.264 23.0918Z" fill="#9999FF"/>
<path d="M139.822 35.8501C139.822 35.8501 143.964 35.9035 145.998 33.686C145.998 33.686 144.983 36.6531 139.822 37.459V35.8501Z" fill="#FFB6AD"/>
<path d="M141.571 28.9011C141.613 29.1662 141.488 29.4075 141.292 29.438C141.096 29.4686 140.902 29.2788 140.862 29.0127C140.821 28.7466 140.945 28.5062 141.141 28.4757C141.337 28.4452 141.53 28.635 141.571 28.9011Z" fill="#9999FF"/>
<path d="M141.197 30.223C140.855 30.2223 140.525 30.0992 140.266 29.8759C140.007 29.6526 139.836 29.3438 139.784 29.0051L139.609 27.8882L143.178 27.3246L143.353 28.4414C143.382 28.628 143.375 28.8187 143.331 29.0024C143.287 29.1862 143.207 29.3594 143.096 29.5122C142.986 29.665 142.846 29.7944 142.685 29.893C142.525 29.9916 142.346 30.0573 142.16 30.0866L141.422 30.203C141.348 30.2153 141.272 30.222 141.197 30.223ZM139.85 28.0675L139.993 28.9755C140.043 29.2967 140.219 29.5846 140.481 29.776C140.743 29.9674 141.07 30.0465 141.39 29.996L142.127 29.8796C142.286 29.8547 142.438 29.7986 142.575 29.7146C142.712 29.6306 142.831 29.5204 142.925 29.3902C143.02 29.26 143.088 29.1124 143.125 28.9558C143.163 28.7993 143.17 28.6368 143.145 28.4776L143.002 27.5706L139.85 28.0675Z" fill="white"/>
<path d="M138.006 29.4639C138.048 29.729 137.923 29.9703 137.726 30.0008C137.529 30.0314 137.337 29.8416 137.296 29.5755C137.254 29.3094 137.379 29.069 137.581 29.0385C137.782 29.008 137.964 29.1959 138.006 29.4639Z" fill="#9999FF"/>
<path d="M136.687 30.9355C136.346 30.9344 136.017 30.8114 135.758 30.5886C135.499 30.3658 135.327 30.0576 135.274 29.7194L135.1 28.6026L138.668 28.0399L138.844 29.1567C138.903 29.5336 138.81 29.9183 138.586 30.2265C138.362 30.5348 138.026 30.7414 137.651 30.801L136.913 30.9173C136.839 30.929 136.763 30.9351 136.687 30.9355ZM135.342 28.779L135.483 29.687C135.534 30.0082 135.709 30.2961 135.971 30.4875C136.233 30.6789 136.56 30.758 136.88 30.7075L137.618 30.5912C137.938 30.5405 138.224 30.3644 138.415 30.1015C138.606 29.8386 138.685 29.5105 138.635 29.1892L138.493 28.2821L135.342 28.779Z" fill="white"/>
<path d="M139.356 32.1457C139.451 32.5911 139.714 32.9823 140.09 33.237C140.466 33.4917 140.926 33.5899 141.373 33.5111C141.819 33.4322 142.218 33.1824 142.485 32.8142C142.752 32.446 142.866 31.9882 142.804 31.5372L139.356 32.1457Z" fill="white"/>
<path d="M139.11 27.6269L138.41 30.8697L139.894 31.0175L139.11 27.6269Z" fill="#FFCEC8"/>
<path d="M139.894 31.1234H139.884L138.4 30.9755C138.385 30.9739 138.371 30.9692 138.358 30.9618C138.345 30.9544 138.334 30.9445 138.325 30.9326C138.316 30.9204 138.31 30.9066 138.307 30.892C138.304 30.8774 138.304 30.8624 138.307 30.8477L139.007 27.605C139.015 27.5794 139.032 27.5577 139.055 27.5443C139.078 27.5308 139.105 27.5265 139.131 27.5323C139.157 27.538 139.18 27.5534 139.196 27.5754C139.211 27.5973 139.217 27.6242 139.214 27.6508L138.543 30.7762L139.909 30.9116C139.937 30.913 139.964 30.9255 139.982 30.9463C140.001 30.9672 140.011 30.9947 140.01 31.0227C140.008 31.0508 139.996 31.0772 139.975 31.0961C139.954 31.1149 139.927 31.1247 139.899 31.1234H139.894Z" fill="#FF7867"/>
<path d="M141.869 26.5252C141.868 26.5824 141.847 26.6373 141.808 26.6791C141.769 26.721 141.716 26.7467 141.66 26.7513L140.424 26.8466C140.337 26.8466 140.253 26.8119 140.192 26.75C140.13 26.6881 140.096 26.6042 140.096 26.5167C140.095 26.4706 140.105 26.425 140.123 26.3829C140.142 26.3407 140.169 26.3029 140.203 26.2718C140.237 26.2407 140.277 26.2171 140.32 26.2025C140.364 26.1878 140.41 26.1824 140.456 26.1867L141.661 26.3002C141.717 26.3049 141.77 26.3306 141.808 26.3723C141.847 26.4139 141.868 26.4685 141.869 26.5252Z" fill="#9999FF"/>
<path d="M136.793 27.7194C136.807 27.7748 136.841 27.8228 136.889 27.8539C136.937 27.8851 136.994 27.897 137.05 27.8873L138.268 27.6698C138.31 27.6592 138.349 27.6403 138.384 27.6143C138.418 27.5882 138.448 27.5556 138.47 27.5182C138.492 27.4808 138.507 27.4395 138.513 27.3964C138.519 27.3534 138.517 27.3095 138.506 27.2674C138.495 27.2228 138.474 27.1811 138.446 27.145C138.417 27.1089 138.382 27.079 138.341 27.0574C138.301 27.0358 138.256 27.0229 138.21 27.0194C138.165 27.016 138.119 27.0222 138.076 27.0375L136.935 27.4467C136.883 27.4656 136.839 27.5037 136.812 27.5534C136.786 27.6032 136.779 27.661 136.793 27.7156V27.7194Z" fill="#9999FF"/>
<path d="M143.04 27.6508L135.323 28.8687C135.298 28.8728 135.273 28.8719 135.248 28.8661C135.224 28.8602 135.201 28.8496 135.18 28.8348C135.16 28.82 135.143 28.8013 135.13 28.7798C135.117 28.7583 135.108 28.7343 135.104 28.7094C135.1 28.6845 135.101 28.659 135.107 28.6344C135.113 28.6098 135.124 28.5866 135.138 28.5662C135.153 28.5458 135.172 28.5286 135.194 28.5155C135.215 28.5024 135.239 28.4938 135.264 28.4901L142.981 27.2721C143.006 27.268 143.032 27.269 143.056 27.2749C143.081 27.2807 143.104 27.2914 143.124 27.3063C143.144 27.3213 143.162 27.3401 143.175 27.3617C143.188 27.3833 143.196 27.4073 143.2 27.4323C143.204 27.4572 143.203 27.4826 143.197 27.5071C143.191 27.5316 143.18 27.5546 143.165 27.5749C143.151 27.5952 143.132 27.6124 143.11 27.6254C143.089 27.6384 143.065 27.647 143.04 27.6508Z" fill="#FFA680"/>
<path d="M142.698 82.1803C142.765 82.4639 142.795 82.755 142.786 83.0463V83.053L143.365 88.7125H156.276L154.079 66.433L154.069 66.3271L154.045 66.082L154.034 65.9733L154.015 65.7826L153.998 65.6195L153.985 65.4821L153.976 65.3868V65.3772L153.961 65.2323L153.954 65.1588L153.938 64.9852L153.932 64.9328L153.899 64.5942L153.893 64.5351L151.259 37.8302L144.41 42.0038L139.823 39.0367L139.835 37.8302L138.299 39.1082L142.647 81.6748L142.698 82.1803Z" fill="#FF7867"/>
<path d="M123.417 69.9485L116.291 58.1306L108.385 62.2317L116.467 77.3562C116.467 77.3562 117.113 78.5303 117.167 78.6486C119.309 83.3544 125.063 83.7416 128.885 80.2699C129.002 80.1641 129.12 80.0487 129.238 79.9361L123.537 69.834L123.417 69.9485Z" fill="#9999FF"/>
<path d="M129.271 88.7095H143.377C142.521 79.7309 138.605 39.0394 138.298 39.1023C127.682 41.2731 121.153 47.3999 119.027 56.1887C117.836 61.1091 117.971 74.9469 117.991 76.6045L129.226 80.0008C129.259 78.0857 128.997 75.3914 129.153 72.7381L129.271 88.7095Z" fill="#9999FF"/>
<path d="M129.153 77.7416C129.125 77.7416 129.098 77.7307 129.079 77.7112C129.059 77.6918 129.048 77.6654 129.047 77.6376L128.489 53.3628C128.489 53.3347 128.501 53.3078 128.52 53.2879C128.54 53.2681 128.567 53.2569 128.595 53.2569C128.623 53.2569 128.65 53.2681 128.67 53.2879C128.689 53.3078 128.7 53.3347 128.7 53.3628L129.258 77.6376C129.259 77.6515 129.256 77.6654 129.251 77.6783C129.246 77.6913 129.239 77.7032 129.229 77.7133C129.22 77.7234 129.208 77.7315 129.196 77.7372C129.183 77.7429 129.169 77.746 129.156 77.7463L129.153 77.7416Z" fill="#CCCCFF"/>
<path d="M172.179 88.7095C172.217 87.3419 172.254 85.9748 172.292 84.6084C173.827 84.5853 175.314 84.0744 176.542 83.1492C176.581 83.1206 176.619 83.091 176.656 83.0615C177.472 82.4079 178.111 81.5585 178.513 80.5917C178.916 79.6249 179.07 78.5718 178.96 77.5297L177.367 61.8139C177.181 60.3218 176.895 58.844 176.511 57.3905C174.433 49.6155 169.6 43.4744 161.935 41.1091L152.675 38.2564L151.258 37.832L156.24 88.7095H172.179Z" fill="#9999FF"/>
<path d="M148.312 88.2403C148.28 88.2402 148.25 88.2288 148.226 88.2082C148.202 88.1876 148.186 88.159 148.182 88.1278C148.126 87.7549 148.105 87.4001 148.087 87.0567C148.075 86.8545 148.063 86.6447 148.043 86.432C147.991 85.7749 147.924 85.1063 147.859 84.4606C147.795 83.8149 147.728 83.1435 147.676 82.4845C147.663 82.2823 147.652 82.0782 147.643 81.8808C147.626 81.2766 147.568 80.6743 147.468 80.0782C147.387 79.5918 147.143 79.2036 146.885 78.7916C146.824 78.6962 146.761 78.5951 146.7 78.494C146.635 78.4048 146.59 78.302 146.569 78.1931C146.548 78.0842 146.551 77.9719 146.579 77.8645C146.639 77.6766 146.723 77.4972 146.829 77.3304C146.923 77.1843 146.998 77.0266 147.052 76.8612C147.124 76.5751 146.853 76.4082 146.491 76.227C146.367 76.1709 146.256 76.0893 146.165 75.9875C146.074 75.8856 146.005 75.7658 145.963 75.6356C145.934 75.5259 145.928 75.4111 145.947 75.2991C145.966 75.1871 146.008 75.0804 146.071 74.9861C146.076 74.9774 146.082 74.9694 146.089 74.9623C146.131 74.9099 146.158 74.8479 146.169 74.782C146.182 74.7292 146.2 74.6778 146.222 74.6285C146.227 74.6187 146.233 74.6097 146.24 74.6018C146.591 74.1907 146.81 73.8531 146.94 73.5107C146.421 67.0033 145.853 60.4062 145.304 54.0266C144.965 50.0982 144.615 46.0362 144.28 42.0333C144.279 42.0159 144.281 41.9985 144.286 41.9819C144.291 41.9653 144.3 41.9499 144.311 41.9365C144.322 41.9232 144.336 41.9122 144.351 41.9042C144.366 41.8962 144.383 41.8913 144.4 41.8898C144.418 41.8883 144.435 41.8902 144.452 41.8954C144.468 41.9007 144.484 41.9092 144.497 41.9204C144.51 41.9316 144.521 41.9453 144.529 41.9607C144.537 41.9762 144.542 41.9931 144.543 42.0104C144.878 46.0161 145.228 50.0753 145.567 54.0037C146.117 60.3938 146.686 67.0023 147.206 73.5202C147.208 73.5393 147.205 73.5586 147.198 73.5765C147.057 73.958 146.827 74.3204 146.452 74.7601C146.441 74.7913 146.431 74.8231 146.424 74.8555C146.403 74.9608 146.356 75.0592 146.288 75.1416C146.247 75.2037 146.22 75.2738 146.207 75.3472C146.195 75.4207 146.199 75.4959 146.218 75.5679C146.25 75.662 146.302 75.7484 146.369 75.8215C146.437 75.8947 146.518 75.9532 146.609 75.9933C146.939 76.1592 147.438 76.4091 147.307 76.9337C147.247 77.1216 147.163 77.3011 147.058 77.4678C146.964 77.6141 146.889 77.7717 146.834 77.937C146.816 78.0085 146.814 78.0834 146.829 78.1558C146.844 78.2281 146.876 78.2959 146.922 78.3538C146.981 78.4492 147.043 78.5531 147.104 78.6495C147.365 79.0644 147.635 79.4945 147.725 80.0314C147.826 80.6383 147.886 81.2514 147.903 81.8665C147.913 82.0629 147.922 82.2661 147.935 82.4645C147.988 83.1197 148.054 83.7873 148.119 84.4339C148.183 85.0806 148.25 85.7501 148.302 86.4082C148.322 86.6237 148.335 86.8355 148.347 87.0396C148.368 87.3934 148.387 87.7272 148.442 88.0887C148.444 88.1059 148.444 88.1235 148.439 88.1404C148.435 88.1573 148.428 88.1731 148.417 88.1871C148.407 88.2011 148.394 88.213 148.379 88.2219C148.364 88.2309 148.348 88.2368 148.331 88.2394L148.312 88.2403Z" fill="white"/>
<path d="M141.393 43.8998C141.373 43.8998 141.352 43.8949 141.334 43.8855C141.315 43.876 141.299 43.8623 141.287 43.8454L138.233 39.6375C138.212 39.609 138.204 39.5735 138.209 39.5387C138.215 39.5039 138.234 39.4727 138.262 39.452C138.29 39.4312 138.326 39.4226 138.361 39.4281C138.395 39.4335 138.426 39.4526 138.447 39.4811L141.43 43.5927L144.34 41.9065C144.36 41.8952 144.383 41.8893 144.406 41.8893C144.429 41.8893 144.452 41.8952 144.472 41.9065L146.855 43.2884L151.397 39.9713C151.411 39.961 151.427 39.9536 151.444 39.9495C151.461 39.9454 151.478 39.9447 151.495 39.9474C151.512 39.9501 151.529 39.9562 151.544 39.9653C151.559 39.9744 151.571 39.9863 151.582 40.0004C151.592 40.0145 151.599 40.0304 151.603 40.0474C151.607 40.0643 151.608 40.0819 151.605 40.0992C151.603 40.1164 151.597 40.1329 151.588 40.1478C151.579 40.1627 151.567 40.1756 151.553 40.1859L146.941 43.5536C146.921 43.5685 146.896 43.5771 146.87 43.5785C146.845 43.5798 146.819 43.5738 146.797 43.5612L144.405 42.1745L141.46 43.8826C141.44 43.8939 141.417 43.8998 141.393 43.8998Z" fill="white"/>
<path d="M143.544 46.7562C143.868 46.7562 144.131 46.4923 144.131 46.1668C144.131 45.8413 143.868 45.5774 143.544 45.5774C143.219 45.5774 142.956 45.8413 142.956 46.1668C142.956 46.4923 143.219 46.7562 143.544 46.7562Z" fill="white"/>
<path d="M144.522 59.8197C144.846 59.8197 145.109 59.5558 145.109 59.2303C145.109 58.9047 144.846 58.6408 144.522 58.6408C144.197 58.6408 143.934 58.9047 143.934 59.2303C143.934 59.5558 144.197 59.8197 144.522 59.8197Z" fill="white"/>
<path d="M146.086 71.6375C146.086 71.7543 146.052 71.8685 145.987 71.9656C145.922 72.0627 145.831 72.1384 145.723 72.183C145.615 72.2277 145.497 72.2393 145.383 72.2165C145.269 72.1936 145.164 72.1373 145.082 72.0546C145 71.972 144.944 71.8667 144.921 71.7521C144.899 71.6375 144.91 71.5188 144.955 71.411C145 71.3031 145.075 71.211 145.172 71.1462C145.269 71.0815 145.383 71.047 145.499 71.0472C145.576 71.0472 145.653 71.0625 145.724 71.0922C145.795 71.1218 145.86 71.1653 145.915 71.2202C145.969 71.275 146.012 71.3401 146.042 71.4117C146.071 71.4833 146.086 71.5601 146.086 71.6375Z" fill="white"/>
<path d="M147.459 86.1889C147.459 86.3056 147.425 86.4198 147.36 86.5169C147.296 86.614 147.204 86.6896 147.096 86.7343C146.989 86.779 146.871 86.7907 146.757 86.7679C146.642 86.7451 146.538 86.6889 146.455 86.6063C146.373 86.5238 146.317 86.4186 146.294 86.304C146.272 86.1895 146.283 86.0708 146.328 85.9629C146.372 85.8551 146.448 85.7629 146.545 85.698C146.641 85.6331 146.755 85.5985 146.871 85.5985C147.027 85.5985 147.177 85.6607 147.287 85.7714C147.397 85.8821 147.459 86.0323 147.459 86.1889Z" fill="white"/>
<path d="M110.055 63.6699C109.959 63.5719 109.894 63.4474 109.868 63.3122C109.842 63.1769 109.857 63.037 109.91 62.9101C109.963 62.7833 110.053 62.6751 110.167 62.5994C110.282 62.5236 110.416 62.4837 110.554 62.4846C110.691 62.4855 110.825 62.5273 110.938 62.6046C111.052 62.6819 111.14 62.7913 111.192 62.9189C111.243 63.0465 111.256 63.1866 111.228 63.3214C111.201 63.4563 111.134 63.5799 111.036 63.6766C110.905 63.806 110.728 63.8779 110.544 63.8766C110.36 63.8754 110.185 63.801 110.055 63.6699ZM110.892 62.8421C110.825 62.7745 110.739 62.7284 110.646 62.7098C110.552 62.6911 110.455 62.7007 110.367 62.7373C110.279 62.7739 110.204 62.8359 110.151 62.9154C110.098 62.9949 110.07 63.0884 110.07 63.184C110.07 63.2796 110.098 63.3731 110.151 63.4527C110.204 63.5322 110.279 63.5941 110.367 63.6307C110.455 63.6673 110.552 63.6769 110.646 63.6583C110.739 63.6396 110.825 63.5935 110.892 63.5259C110.937 63.4811 110.973 63.4279 110.997 63.3693C111.022 63.3106 111.034 63.2477 111.034 63.1842C111.034 63.1207 111.022 63.0577 110.998 62.999C110.974 62.9403 110.938 62.887 110.893 62.8421H110.892Z" fill="#CCCCFF"/>
<path d="M110.363 66.1612C110.356 66.1541 110.35 66.146 110.345 66.1374C110.332 66.1126 110.329 66.0835 110.337 66.0566C110.345 66.0296 110.363 66.0069 110.388 65.9934L117.193 62.2909C117.218 62.2775 117.248 62.2746 117.275 62.2831C117.302 62.2915 117.325 62.3104 117.338 62.3357C117.352 62.361 117.354 62.3906 117.346 62.4179C117.338 62.4453 117.319 62.4682 117.294 62.4816L110.489 66.1851C110.468 66.1954 110.445 66.1987 110.422 66.1944C110.399 66.19 110.379 66.1784 110.363 66.1612Z" fill="#CCCCFF"/>
<path d="M162.54 85.9428L149.52 87.7158L148.064 78.6857L163.389 75.6175L162.54 85.9428Z" fill="#9999FF"/>
<path d="M151.831 78.0372C151.807 78.037 151.783 78.0285 151.764 78.0131C151.746 77.9976 151.733 77.9762 151.728 77.9523C151.725 77.9386 151.725 77.9244 151.728 77.9107C151.73 77.897 151.736 77.8839 151.743 77.8723C151.751 77.8607 151.761 77.8507 151.773 77.843C151.784 77.8353 151.798 77.83 151.811 77.8273L166.553 74.8707L162.677 51.5393C162.675 51.5256 162.675 51.5116 162.678 51.498C162.682 51.4844 162.687 51.4716 162.695 51.4603C162.703 51.449 162.714 51.4393 162.725 51.4319C162.737 51.4245 162.75 51.4195 162.764 51.4172C162.777 51.4149 162.791 51.4153 162.805 51.4184C162.818 51.4215 162.831 51.4273 162.842 51.4353C162.854 51.4434 162.863 51.4536 162.871 51.4654C162.878 51.4772 162.883 51.4903 162.885 51.504L166.781 74.9423C166.786 74.9694 166.78 74.9974 166.764 75.02C166.748 75.0427 166.724 75.0583 166.697 75.0634L151.855 78.0353L151.831 78.0372Z" fill="#CCCCFF"/>
<path d="M149.613 87.8178C149.586 87.8179 149.56 87.8077 149.54 87.7894C149.521 87.771 149.509 87.7459 149.507 87.7191C149.505 87.6923 149.514 87.6659 149.531 87.6451C149.548 87.6242 149.572 87.6107 149.598 87.6071L172.274 84.5026C172.3 84.5015 172.326 84.5104 172.346 84.5275C172.367 84.5445 172.38 84.5686 172.384 84.595C172.387 84.6214 172.381 84.6481 172.366 84.67C172.351 84.6919 172.328 84.7074 172.302 84.7134L149.624 87.8169L149.613 87.8178Z" fill="#CCCCFF"/>
<path d="M150.943 86.2051C150.893 86.2048 150.844 86.1994 150.796 86.1889C150.662 86.16 150.54 86.0917 150.444 85.9929C150.349 85.894 150.285 85.7689 150.26 85.6334C150.236 85.498 150.252 85.3582 150.306 85.232C150.361 85.1057 150.452 84.9986 150.567 84.9241C150.643 84.8741 150.729 84.8398 150.818 84.8234C150.908 84.807 151 84.8089 151.089 84.8288C151.256 84.8655 151.403 84.9628 151.503 85.1019C151.603 85.241 151.648 85.4122 151.63 85.5827C151.612 85.7532 151.532 85.911 151.405 86.0258C151.278 86.1407 151.113 86.2045 150.943 86.2051ZM150.943 85.0243C150.827 85.0287 150.716 85.0749 150.631 85.1544C150.546 85.234 150.493 85.3415 150.481 85.4574C150.468 85.5733 150.498 85.6897 150.565 85.7853C150.631 85.881 150.729 85.9494 150.842 85.9781C150.966 86.0042 151.096 85.9798 151.203 85.9103C151.31 85.8408 151.385 85.7319 151.412 85.6071C151.438 85.482 151.414 85.3518 151.344 85.2446C151.275 85.1374 151.167 85.062 151.042 85.0348C151.009 85.0277 150.975 85.0242 150.942 85.0243H150.943Z" fill="#CCCCFF"/>
<path d="M153.573 87.279C153.547 87.2789 153.523 87.2698 153.504 87.2534C153.485 87.2369 153.472 87.2143 153.468 87.1893L152.203 79.1836C152.201 79.1698 152.201 79.1557 152.204 79.1421C152.208 79.1286 152.213 79.1158 152.222 79.1045C152.23 79.0932 152.24 79.0836 152.252 79.0763C152.264 79.069 152.277 79.0642 152.291 79.062C152.304 79.0598 152.318 79.0603 152.332 79.0636C152.345 79.0668 152.358 79.0727 152.369 79.0809C152.381 79.0891 152.39 79.0994 152.397 79.1113C152.405 79.1232 152.41 79.1364 152.412 79.1502L153.677 87.1559C153.682 87.1837 153.675 87.2122 153.658 87.235C153.642 87.2579 153.617 87.2733 153.59 87.278L153.573 87.279Z" fill="#CCCCFF"/>
<path d="M139.429 87.0348L140.232 85.9933L140.169 88.3777C140.168 88.4417 140.182 88.505 140.209 88.5628C140.237 88.6205 140.277 88.6711 140.327 88.7106H140.847C140.922 88.652 140.975 88.5691 140.996 88.4759L141.326 86.9156L142.719 85.0692L141.468 86.8021L141.54 88.7153H142.366L142.715 87.2656L143.705 85.9399C143.715 85.9269 143.728 85.9173 143.744 85.9127C143.759 85.908 143.776 85.9086 143.791 85.9142C143.801 85.918 143.81 85.924 143.818 85.9317C143.825 85.9395 143.831 85.9488 143.835 85.959C143.839 85.9693 143.84 85.9802 143.839 85.9911C143.838 86.0019 143.835 86.0125 143.83 86.0219L143.101 87.3124L142.799 88.7153H143.833L144.342 87.7931L144.991 86.7067L146.005 86.1412C147.592 86.7296 148.429 85.8055 148.429 85.8055L149.228 85.9256L148.4 80.7306C147.875 80.8619 147.359 81.023 146.852 81.2132L142.55 82.7792L140.402 84.0725C140.18 84.207 140.002 84.4039 139.889 84.639L138.901 86.7106C138.869 86.7802 138.864 86.8592 138.886 86.9327C138.908 87.0062 138.956 87.069 139.021 87.1093C139.086 87.1496 139.163 87.1645 139.239 87.1513C139.314 87.1381 139.382 87.0977 139.429 87.0377V87.0348Z" fill="#FFCEC8"/>
<path d="M140.313 86.0638H140.306C140.299 86.0629 140.293 86.0606 140.287 86.0571C140.281 86.0536 140.275 86.0489 140.271 86.0433C140.267 86.0377 140.264 86.0313 140.262 86.0246C140.26 86.0178 140.26 86.0107 140.261 86.0038L140.278 85.8731C140.303 85.685 140.391 85.5113 140.529 85.381L142.124 83.8741C142.134 83.8641 142.147 83.8585 142.162 83.8585C142.176 83.8585 142.189 83.8641 142.199 83.8741C142.204 83.8789 142.208 83.8846 142.211 83.891C142.214 83.8974 142.215 83.9043 142.215 83.9112C142.215 83.9182 142.214 83.9251 142.211 83.9315C142.208 83.9379 142.204 83.9436 142.199 83.9484L140.605 85.4563C140.485 85.5695 140.407 85.7207 140.385 85.8845L140.368 86.0162C140.368 86.0229 140.366 86.0295 140.363 86.0356C140.36 86.0417 140.356 86.0471 140.35 86.0515C140.345 86.0559 140.339 86.0593 140.333 86.0614C140.327 86.0635 140.32 86.0644 140.313 86.0638Z" fill="#FF7867"/>
<path d="M141.495 86.8697C141.489 86.8711 141.483 86.8711 141.477 86.8697C141.471 86.8675 141.465 86.864 141.459 86.8593C141.454 86.8547 141.45 86.849 141.447 86.8426C141.444 86.8363 141.443 86.8294 141.442 86.8225C141.442 86.8155 141.443 86.8085 141.446 86.802L141.496 86.6647C141.498 86.6593 141.501 86.6544 141.505 86.6504L142.684 85.1588C142.688 85.1522 142.693 85.1466 142.699 85.1423C142.705 85.138 142.713 85.135 142.72 85.1337C142.727 85.1323 142.735 85.1325 142.742 85.1344C142.75 85.1362 142.757 85.1396 142.763 85.1443C142.769 85.1491 142.773 85.155 142.777 85.1618C142.78 85.1685 142.782 85.176 142.783 85.1836C142.783 85.1911 142.782 85.1987 142.779 85.2058C142.776 85.2129 142.772 85.2193 142.767 85.2246L141.592 86.7067L141.545 86.8354C141.541 86.8455 141.534 86.8543 141.525 86.8604C141.517 86.8666 141.506 86.8698 141.495 86.8697Z" fill="#FF7867"/>
<path d="M126.035 74.9203C126.013 74.9202 125.992 74.9143 125.973 74.9033C125.954 74.8922 125.939 74.8764 125.928 74.8574L118.495 61.9904C118.486 61.9762 118.481 61.9605 118.479 61.9442C118.477 61.928 118.478 61.9114 118.482 61.8956C118.486 61.8797 118.494 61.8649 118.504 61.8518C118.514 61.8388 118.526 61.8279 118.54 61.8197C118.554 61.8115 118.57 61.8062 118.586 61.804C118.602 61.8019 118.619 61.803 118.635 61.8072C118.651 61.8115 118.665 61.8188 118.678 61.8288C118.691 61.8388 118.702 61.8513 118.71 61.8655L126.147 74.7325C126.164 74.7611 126.168 74.7951 126.16 74.827C126.151 74.8589 126.131 74.8863 126.103 74.9032C126.082 74.9151 126.059 74.921 126.035 74.9203Z" fill="#CCCCFF"/>
</svg>
